<?xml version="1.0" encoding="UTF-8" standalone="no"?>
<svg width="22px" height="22px" viewBox="0 0 22 22" version="1.1" xmlns="http://www.w3.org/2000/svg" xmlns:xlink="http://www.w3.org/1999/xlink">
    <!-- Generator: sketchtool 40.3 (33839) - http://www.bohemiancoding.com/sketch -->
    <title>4E310F93-75B6-44D4-8DE1-3D693294B43C</title>
    <desc>Created with sketchtool.</desc>
    <defs></defs>
    <g id="我的医生工作室" stroke="none" stroke-width="1" fill="none" fill-rule="evenodd">
        <g id="我的医生工作室付费版——我的康复记录分享" transform="translate(-12.000000, -236.000000)" fill="#FFFFFF">
            <g id="Page-1" transform="translate(12.000000, 236.000000)">
                <path d="M4.169,4.1671 C2.417,5.9151 1.333,8.3331 1.333,11.0001 C1.333,13.6691 2.417,16.0841 4.169,17.8351 C5.918,19.5831 8.337,20.6601 11.004,20.6601 C13.671,20.6601 16.089,19.5831 17.841,17.8351 C19.583,16.0841 20.667,13.6661 20.667,11.0001 C20.667,8.3331 19.583,5.9151 17.841,4.1671 C16.089,2.4161 13.671,1.3421 11.004,1.3421 C8.337,1.3421 5.918,2.4161 4.169,4.1671 L4.169,4.1671 Z M10.414,10.4071 L10.414,3.9421 C10.414,3.6161 10.681,3.3571 11.004,3.3571 C11.329,3.3571 11.589,3.6161 11.589,3.9421 L11.589,11.0891 L11.581,11.1001 L11.581,11.1331 L11.57,11.1481 L11.57,11.1591 L11.563,11.1741 L11.563,11.1921 L11.555,11.1991 L11.547,11.2151 L11.547,11.2251 L11.537,11.2411 L11.53,11.2591 L11.53,11.2661 L11.522,11.2841 L11.512,11.2921 C11.411,11.4661 11.222,11.5921 11.004,11.5921 L5.477,11.5921 C5.151,11.5921 4.893,11.3251 4.893,11.0001 C4.893,10.6741 5.151,10.4071 5.477,10.4071 L10.414,10.4071 Z M11.004,0.1581 C13.997,0.1581 16.705,1.3751 18.667,3.3321 C20.634,5.3001 21.842,8.0081 21.842,11.0001 C21.842,13.9911 20.634,16.7011 18.664,18.6681 C16.705,20.6271 13.997,21.8421 11.004,21.8421 C8.011,21.8421 5.303,20.6271 3.335,18.6681 C1.376,16.7011 0.158,13.9911 0.158,11.0001 C0.158,8.0081 1.376,5.3001 3.335,3.3321 C5.303,1.3751 8.011,0.1581 11.004,0.1581 L11.004,0.1581 Z" id="Fill-1"></path>
                <g id="Group-5">
                    <path d="M5.4767,10.565 C5.2417,10.565 5.0507,10.76 5.0507,11 C5.0507,11.239 5.2417,11.434 5.4767,11.434 L11.0037,11.434 C11.1547,11.434 11.2967,11.349 11.3747,11.213 L11.4307,11.062 L11.4307,3.942 C11.4307,3.703 11.2427,3.515 11.0037,3.515 C10.7657,3.515 10.5717,3.707 10.5717,3.942 L10.5717,10.565 L5.4767,10.565 Z M11.0037,11.75 L5.4767,11.75 C5.0667,11.75 4.7347,11.414 4.7347,11 C4.7347,10.586 5.0667,10.249 5.4767,10.249 L10.2557,10.249 L10.2557,3.942 C10.2557,3.533 10.5917,3.199 11.0037,3.199 C11.4137,3.199 11.7467,3.533 11.7467,3.942 L11.7207,11.244 L11.6397,11.386 C11.5037,11.611 11.2607,11.75 11.0037,11.75 L11.0037,11.75 Z M11.0037,1.5 C8.4577,1.5 6.0707,2.487 4.2807,4.279 C2.4817,6.075 1.4907,8.462 1.4907,11 C1.4907,13.537 2.4817,15.924 4.2807,17.722 C6.0727,19.514 8.4607,20.502 11.0037,20.502 C13.5457,20.502 15.9337,19.514 17.7297,17.722 C19.5217,15.921 20.5097,13.533 20.5097,11 C20.5097,8.465 19.5217,6.078 17.7287,4.278 C15.9367,2.487 13.5477,1.5 11.0037,1.5 L11.0037,1.5 Z M11.0037,20.818 C8.3757,20.818 5.9087,19.798 4.0577,17.947 C2.1977,16.088 1.1747,13.621 1.1747,11 C1.1747,8.377 2.1977,5.911 4.0577,4.055 C5.9057,2.204 8.3737,1.184 11.0037,1.184 C13.6327,1.184 16.1007,2.204 17.9527,4.055 C19.8057,5.915 20.8257,8.381 20.8257,11 C20.8257,13.617 19.8057,16.084 17.9527,17.946 C16.0977,19.798 13.6297,20.818 11.0037,20.818 L11.0037,20.818 Z M11.0037,0.316 C8.1597,0.316 5.4757,1.427 3.4467,3.444 C1.4277,5.472 0.3157,8.155 0.3157,11 C0.3157,13.846 1.4277,16.53 3.4467,18.556 C5.4727,20.573 8.1567,21.684 11.0037,21.684 C13.8547,21.684 16.5357,20.573 18.5517,18.555 C20.5717,16.54 21.6837,13.857 21.6837,11 C21.6837,8.147 20.5727,5.462 18.5547,3.444 C16.5327,1.427 13.8507,0.316 11.0037,0.316 L11.0037,0.316 Z M11.0037,22 C8.0717,22 5.3087,20.856 3.2237,18.779 C1.1447,16.694 -0.0003,13.931 -0.0003,11 C-0.0003,8.072 1.1447,5.309 3.2227,3.22 C5.3117,1.143 8.0747,0 11.0037,0 C13.9347,0 16.6967,1.143 18.7787,3.22 C20.8557,5.299 21.9997,8.062 21.9997,11 C21.9997,13.942 20.8557,16.704 18.7757,18.779 C16.6997,20.856 13.9397,22 11.0037,22 L11.0037,22 Z" id="Fill-3"></path>
                </g>
            </g>
        </g>
    </g>
</svg>